<svg width="389" height="12" viewBox="0 0 389 12" fill="none" xmlns="http://www.w3.org/2000/svg">
<path d="M1.53662 7.20297C43.6605 6.51241 85.787 6.23633 127.906 5.15637C189.317 3.58172 250.697 1.51352 312.134 1.20192C333.11 1.09553 350.88 1.12216 371.382 1.61818C371.771 1.6276 383.069 1.75641 386.714 2.48538C390.292 3.20111 379.468 3.43554 375.822 3.5954C351.417 4.6654 326.98 4.94729 302.56 5.46856C294.353 5.64376 274.548 6.08875 265.583 6.30107C261.28 6.40297 248.44 5.97368 252.679 6.71733C258.283 7.70057 264.056 7.01237 269.745 7.06421C283.442 7.18901 295.807 7.18024 309.567 7.20297C326.571 7.23105 343.595 7.08293 360.594 7.58454C362.06 7.6278 369.885 7.75099 372.734 8.48643C373.402 8.65875 371.713 9.54246 371.035 9.66582C364.026 10.9402 342.578 10.9493 349.701 10.9493C356.443 10.9493 363.184 10.9493 369.925 10.9493" stroke="url(#paint0_linear_1_722)" stroke-width="2" stroke-linecap="round"/>
<defs>
<linearGradient id="paint0_linear_1_722" x1="194.483" y1="-1.25039" x2="194.483" y2="20.8435" gradientUnits="userSpaceOnUse">
<stop offset="0.265" stop-color="#B2FF8D"/>
<stop offset="0.49" stop-color="#02D085"/>
<stop offset="1" stop-color="#02D085"/>
</linearGradient>
</defs>
</svg>
