<svg width="15" height="16" viewBox="0 0 15 16" fill="none" xmlns="http://www.w3.org/2000/svg">
<path d="M15 8C15 3.86437 11.6356 0.5 7.5 0.5C3.36437 0.5 0 3.86437 0 8C0 12.1356 3.36437 15.5 7.5 15.5C11.6356 15.5 15 12.1356 15 8ZM7.05812 10.3169L3.93314 7.19187C3.81126 7.07 3.75 6.91001 3.75 6.74999C3.75 6.59 3.81126 6.42998 3.93314 6.30811C4.1775 6.06374 4.57251 6.06374 4.81687 6.30811L7.5 8.99126L10.1831 6.30814C10.4275 6.06377 10.8225 6.06377 11.0669 6.30814C11.3112 6.5525 11.3112 6.94751 11.0669 7.19187L7.94186 10.3169C7.69749 10.5613 7.30251 10.5613 7.05812 10.3169Z" fill="white"/>
</svg>
