<svg width="15" height="16" viewBox="0 0 15 16" fill="none" xmlns="http://www.w3.org/2000/svg">
<path d="M0 8C0 12.1356 3.36437 15.5 7.5 15.5C11.6356 15.5 15 12.1356 15 8C15 3.86437 11.6356 0.5 7.5 0.5C3.36437 0.5 0 3.86437 0 8ZM7.94188 5.68312L11.0669 8.80813C11.1887 8.93 11.25 9.08999 11.25 9.25001C11.25 9.41 11.1887 9.57002 11.0669 9.69189C10.8225 9.93626 10.4275 9.93626 10.1831 9.69189L7.5 7.00874L4.81687 9.69186C4.57251 9.93623 4.1775 9.93623 3.93314 9.69186C3.68877 9.4475 3.68877 9.05249 3.93314 8.80813L7.05814 5.68312C7.30251 5.43875 7.69749 5.43875 7.94188 5.68312Z" fill="white"/>
</svg>
