<svg width="388" height="12" viewBox="0 0 388 12" fill="none" xmlns="http://www.w3.org/2000/svg"><path d="M1 7.05184C43.1239 6.36129 85.2504 6.08521 127.369 5.00524C188.78 3.4306 250.16 1.3624 311.598 1.0508C332.573 0.94441 350.343 0.971036 370.845 1.46705C371.234 1.47648 382.532 1.60529 386.177 2.33426C389.756 3.04998 378.931 3.28442 375.285 3.44428C350.881 4.51428 326.443 4.79616 302.024 5.31744C293.816 5.49264 274.011 5.93763 265.046 6.14995C260.744 6.25185 247.903 5.82256 252.142 6.56621C257.747 7.54944 263.519 6.86125 269.209 6.91309C282.905 7.03789 295.27 7.02912 309.031 7.05184C326.034 7.07993 343.058 6.9318 360.057 7.43341C361.523 7.47668 369.348 7.59987 372.198 8.3353C372.866 8.50762 371.177 9.39134 370.498 9.5147C363.489 10.7891 342.041 10.7982 349.165 10.7982C355.906 10.7982 362.647 10.7982 369.388 10.7982" stroke="#41F9FF" stroke-width="2" stroke-linecap="round"/></svg>
